<svg width="20" height="20" viewBox="0 0 20 20" fill="none" xmlns="http://www.w3.org/2000/svg">
<rect width="20" height="20" rx="10" fill="white"/>
<path d="M6.55469 14V5.27273H10.3388C11.0036 5.27273 11.5618 5.36222 12.0135 5.54119C12.468 5.72017 12.8104 5.97301 13.0405 6.29972C13.2734 6.62642 13.3899 7.01136 13.3899 7.45455C13.3899 7.77557 13.3189 8.06818 13.1768 8.33239C13.0376 8.59659 12.8416 8.81818 12.5888 8.99716C12.3359 9.1733 12.0405 9.29545 11.7024 9.36364V9.44886C12.0774 9.46307 12.4183 9.55824 12.7251 9.73438C13.032 9.90767 13.2763 10.1477 13.4581 10.4545C13.6399 10.7585 13.7308 11.1165 13.7308 11.5284C13.7308 12.0057 13.6058 12.4304 13.3558 12.8026C13.1087 13.1747 12.7564 13.4673 12.299 13.6804C11.8416 13.8935 11.2962 14 10.6626 14H6.55469ZM8.92401 12.108H10.032C10.4297 12.108 10.728 12.0341 10.9268 11.8864C11.1257 11.7358 11.2251 11.5142 11.2251 11.2216C11.2251 11.017 11.1783 10.8437 11.0845 10.7017C10.9908 10.5597 10.8572 10.4517 10.6839 10.3778C10.5135 10.304 10.3075 10.267 10.0661 10.267H8.92401V12.108ZM8.92401 8.80114H9.8956C10.103 8.80114 10.2862 8.76847 10.4453 8.70312C10.6044 8.63778 10.728 8.54403 10.8161 8.42188C10.907 8.29688 10.9524 8.14489 10.9524 7.96591C10.9524 7.69602 10.8558 7.49006 10.6626 7.34801C10.4695 7.20312 10.2251 7.13068 9.92969 7.13068H8.92401V8.80114Z" fill="black"/>
</svg>
