<svg width="153" height="49" viewBox="0 0 153 49" fill="none" xmlns="http://www.w3.org/2000/svg">
<path d="M1.125 23V5.54545H8.69318C10.0227 5.54545 11.1392 5.72443 12.0426 6.08239C12.9517 6.44034 13.6364 6.94602 14.0966 7.59943C14.5625 8.25284 14.7955 9.02273 14.7955 9.90909C14.7955 10.5511 14.6534 11.1364 14.3693 11.6648C14.0909 12.1932 13.6989 12.6364 13.1932 12.9943C12.6875 13.3466 12.0966 13.5909 11.4205 13.7273V13.8977C12.1705 13.9261 12.8523 14.1165 13.4659 14.4688C14.0795 14.8153 14.5682 15.2955 14.9318 15.9091C15.2955 16.517 15.4773 17.233 15.4773 18.0568C15.4773 19.0114 15.2273 19.8608 14.7273 20.6051C14.233 21.3494 13.5284 21.9347 12.6136 22.3608C11.6989 22.7869 10.608 23 9.34091 23H1.125ZM5.86364 19.2159H8.07955C8.875 19.2159 9.47159 19.0682 9.86932 18.7727C10.267 18.4716 10.4659 18.0284 10.4659 17.4432C10.4659 17.0341 10.3722 16.6875 10.1847 16.4034C9.99716 16.1193 9.73011 15.9034 9.38352 15.7557C9.04261 15.608 8.63068 15.5341 8.14773 15.5341H5.86364V19.2159ZM5.86364 12.6023H7.80682C8.22159 12.6023 8.58807 12.5369 8.90625 12.4062C9.22443 12.2756 9.47159 12.0881 9.64773 11.8438C9.82955 11.5938 9.92045 11.2898 9.92045 10.9318C9.92045 10.392 9.72727 9.98011 9.34091 9.69602C8.95455 9.40625 8.46591 9.26136 7.875 9.26136H5.86364V12.6023ZM34.0653 14.2727C34.0653 16.2159 33.6875 17.8551 32.9318 19.1903C32.1761 20.5199 31.1563 21.5284 29.8722 22.2159C28.5881 22.8977 27.1563 23.2386 25.5767 23.2386C23.9858 23.2386 22.5483 22.8949 21.2642 22.2074C19.9858 21.5142 18.9688 20.5028 18.2131 19.1733C17.4631 17.8381 17.0881 16.2045 17.0881 14.2727C17.0881 12.3295 17.4631 10.6932 18.2131 9.36364C18.9688 8.02841 19.9858 7.01989 21.2642 6.33807C22.5483 5.65057 23.9858 5.30682 25.5767 5.30682C27.1563 5.30682 28.5881 5.65057 29.8722 6.33807C31.1563 7.01989 32.1761 8.02841 32.9318 9.36364C33.6875 10.6932 34.0653 12.3295 34.0653 14.2727ZM29.1903 14.2727C29.1903 13.2273 29.0511 12.3466 28.7727 11.6307C28.5 10.9091 28.0938 10.3636 27.554 9.99432C27.0199 9.61932 26.3608 9.43182 25.5767 9.43182C24.7926 9.43182 24.1307 9.61932 23.5909 9.99432C23.0568 10.3636 22.6506 10.9091 22.3722 11.6307C22.0994 12.3466 21.9631 13.2273 21.9631 14.2727C21.9631 15.3182 22.0994 16.2017 22.3722 16.9233C22.6506 17.6392 23.0568 18.1847 23.5909 18.5597C24.1307 18.929 24.7926 19.1136 25.5767 19.1136C26.3608 19.1136 27.0199 18.929 27.554 18.5597C28.0938 18.1847 28.5 17.6392 28.7727 16.9233C29.0511 16.2017 29.1903 15.3182 29.1903 14.2727ZM53.1669 14.2727C53.1669 16.2159 52.7891 17.8551 52.0334 19.1903C51.2777 20.5199 50.2578 21.5284 48.9737 22.2159C47.6896 22.8977 46.2578 23.2386 44.6783 23.2386C43.0874 23.2386 41.6499 22.8949 40.3658 22.2074C39.0874 21.5142 38.0703 20.5028 37.3146 19.1733C36.5646 17.8381 36.1896 16.2045 36.1896 14.2727C36.1896 12.3295 36.5646 10.6932 37.3146 9.36364C38.0703 8.02841 39.0874 7.01989 40.3658 6.33807C41.6499 5.65057 43.0874 5.30682 44.6783 5.30682C46.2578 5.30682 47.6896 5.65057 48.9737 6.33807C50.2578 7.01989 51.2777 8.02841 52.0334 9.36364C52.7891 10.6932 53.1669 12.3295 53.1669 14.2727ZM48.2919 14.2727C48.2919 13.2273 48.1527 12.3466 47.8743 11.6307C47.6016 10.9091 47.1953 10.3636 46.6555 9.99432C46.1214 9.61932 45.4624 9.43182 44.6783 9.43182C43.8942 9.43182 43.2322 9.61932 42.6925 9.99432C42.1584 10.3636 41.7521 10.9091 41.4737 11.6307C41.201 12.3466 41.0646 13.2273 41.0646 14.2727C41.0646 15.3182 41.201 16.2017 41.4737 16.9233C41.7521 17.6392 42.1584 18.1847 42.6925 18.5597C43.2322 18.929 43.8942 19.1136 44.6783 19.1136C45.4624 19.1136 46.1214 18.929 46.6555 18.5597C47.1953 18.1847 47.6016 17.6392 47.8743 16.9233C48.1527 16.2017 48.2919 15.3182 48.2919 14.2727ZM55.3594 23V5.54545H60.098V12.6023H60.3366L65.5866 5.54545H71.1094L65.2116 13.3182L71.2457 23H65.5866L61.6662 16.4545L60.098 18.5V23H55.3594ZM81.6903 11C81.6449 10.4318 81.4318 9.98864 81.0511 9.67045C80.6761 9.35227 80.1051 9.19318 79.3381 9.19318C78.8494 9.19318 78.4489 9.25284 78.1364 9.37216C77.8295 9.4858 77.6023 9.64205 77.4545 9.84091C77.3068 10.0398 77.2301 10.267 77.2244 10.5227C77.2131 10.733 77.25 10.9233 77.3352 11.0938C77.4261 11.2585 77.5682 11.4091 77.7614 11.5455C77.9545 11.6761 78.2017 11.7955 78.5028 11.9034C78.804 12.0114 79.1619 12.108 79.5767 12.1932L81.0085 12.5C81.9744 12.7045 82.8011 12.9744 83.4886 13.3097C84.1761 13.6449 84.7386 14.0398 85.1761 14.4943C85.6136 14.9432 85.9347 15.4489 86.1392 16.0114C86.3494 16.5739 86.4574 17.1875 86.4631 17.8523C86.4574 19 86.1705 19.9716 85.6023 20.767C85.0341 21.5625 84.2216 22.1676 83.1648 22.5824C82.1136 22.9972 80.8494 23.2045 79.3722 23.2045C77.8551 23.2045 76.5313 22.9801 75.4006 22.5312C74.2756 22.0824 73.4006 21.392 72.7756 20.4602C72.1563 19.5227 71.8438 18.3239 71.8381 16.8636H76.3381C76.3665 17.3977 76.5 17.8466 76.7386 18.2102C76.9773 18.5739 77.3125 18.8494 77.7443 19.0369C78.1818 19.2244 78.7017 19.3182 79.304 19.3182C79.8097 19.3182 80.233 19.2557 80.5739 19.1307C80.9148 19.0057 81.1733 18.8324 81.3494 18.6108C81.5256 18.3892 81.6165 18.1364 81.6222 17.8523C81.6165 17.5852 81.5284 17.3523 81.358 17.1534C81.1932 16.9489 80.9205 16.767 80.5398 16.608C80.1591 16.4432 79.6449 16.2898 78.9972 16.1477L77.2585 15.7727C75.7131 15.4375 74.4943 14.8778 73.6023 14.0938C72.7159 13.304 72.2756 12.2273 72.2812 10.8636C72.2756 9.75568 72.571 8.78693 73.1676 7.95739C73.7699 7.12216 74.6023 6.47159 75.6648 6.00568C76.733 5.53977 77.9574 5.30682 79.3381 5.30682C80.7472 5.30682 81.9659 5.54261 82.9943 6.0142C84.0227 6.4858 84.8153 7.15057 85.3722 8.00852C85.9347 8.8608 86.2188 9.85795 86.2244 11H81.6903ZM87.7884 9.36364V5.54545H102.959V9.36364H97.7088V23H93.0384V9.36364H87.7884ZM120.831 14.2727C120.831 16.2159 120.453 17.8551 119.697 19.1903C118.942 20.5199 117.922 21.5284 116.638 22.2159C115.354 22.8977 113.922 23.2386 112.342 23.2386C110.751 23.2386 109.314 22.8949 108.03 22.2074C106.751 21.5142 105.734 20.5028 104.979 19.1733C104.229 17.8381 103.854 16.2045 103.854 14.2727C103.854 12.3295 104.229 10.6932 104.979 9.36364C105.734 8.02841 106.751 7.01989 108.03 6.33807C109.314 5.65057 110.751 5.30682 112.342 5.30682C113.922 5.30682 115.354 5.65057 116.638 6.33807C117.922 7.01989 118.942 8.02841 119.697 9.36364C120.453 10.6932 120.831 12.3295 120.831 14.2727ZM115.956 14.2727C115.956 13.2273 115.817 12.3466 115.538 11.6307C115.266 10.9091 114.859 10.3636 114.32 9.99432C113.786 9.61932 113.126 9.43182 112.342 9.43182C111.558 9.43182 110.896 9.61932 110.357 9.99432C109.822 10.3636 109.416 10.9091 109.138 11.6307C108.865 12.3466 108.729 13.2273 108.729 14.2727C108.729 15.3182 108.865 16.2017 109.138 16.9233C109.416 17.6392 109.822 18.1847 110.357 18.5597C110.896 18.929 111.558 19.1136 112.342 19.1136C113.126 19.1136 113.786 18.929 114.32 18.5597C114.859 18.1847 115.266 17.6392 115.538 16.9233C115.817 16.2017 115.956 15.3182 115.956 14.2727ZM123.023 23V5.54545H130.558C131.853 5.54545 132.987 5.78125 133.958 6.25284C134.93 6.72443 135.685 7.40341 136.225 8.28977C136.765 9.17614 137.035 10.2386 137.035 11.4773C137.035 12.7273 136.756 13.7812 136.2 14.6392C135.648 15.4972 134.873 16.1449 133.873 16.5824C132.879 17.0199 131.717 17.2386 130.387 17.2386H125.887V13.5568H129.433C129.989 13.5568 130.464 13.4886 130.856 13.3523C131.254 13.2102 131.558 12.9858 131.768 12.679C131.984 12.3722 132.092 11.9716 132.092 11.4773C132.092 10.9773 131.984 10.571 131.768 10.2585C131.558 9.94034 131.254 9.70739 130.856 9.55966C130.464 9.40625 129.989 9.32954 129.433 9.32954H127.762V23H123.023ZM133.251 14.9886L137.614 23H132.467L128.205 14.9886H133.251ZM139.055 23V5.54545H151.634V9.36364H143.793V12.3636H150.987V16.1818H143.793V19.1818H151.6V23H139.055Z" fill="black"/>
<path d="M52.4773 37.2727V46H51.4545L46.6989 39.1477H46.6136V46H45.5568V37.2727H46.5795L51.3523 44.142H51.4375V37.2727H52.4773ZM54.592 46V37.2727H59.859V38.2102H55.6488V41.1591H59.5863V42.0966H55.6488V45.0625H59.9272V46H54.592ZM63.3491 46L60.9627 37.2727H62.0366L63.8604 44.3807H63.9457L65.8036 37.2727H66.9968L68.8548 44.3807H68.94L70.7638 37.2727H71.8377L69.4513 46H68.3604L66.4343 39.0455H66.3661L64.44 46H63.3491ZM75.7795 37.2727H76.9897L79.4102 41.3466H79.5124L81.9329 37.2727H83.1431L79.9897 42.4034V46H78.9329V42.4034L75.7795 37.2727ZM91.4634 41.6364C91.4634 42.5568 91.2972 43.3523 90.9648 44.0227C90.6325 44.6932 90.1765 45.2102 89.5969 45.5739C89.0174 45.9375 88.3555 46.1193 87.6112 46.1193C86.8668 46.1193 86.2049 45.9375 85.6254 45.5739C85.0458 45.2102 84.5898 44.6932 84.2575 44.0227C83.9251 43.3523 83.7589 42.5568 83.7589 41.6364C83.7589 40.7159 83.9251 39.9205 84.2575 39.25C84.5898 38.5795 85.0458 38.0625 85.6254 37.6989C86.2049 37.3352 86.8668 37.1534 87.6112 37.1534C88.3555 37.1534 89.0174 37.3352 89.5969 37.6989C90.1765 38.0625 90.6325 38.5795 90.9648 39.25C91.2972 39.9205 91.4634 40.7159 91.4634 41.6364ZM90.4407 41.6364C90.4407 40.8807 90.3143 40.2429 90.0614 39.723C89.8114 39.2031 89.4719 38.8097 89.043 38.5426C88.6168 38.2756 88.1396 38.142 87.6112 38.142C87.0827 38.142 86.604 38.2756 86.1751 38.5426C85.7489 38.8097 85.4094 39.2031 85.1566 39.723C84.9066 40.2429 84.7816 40.8807 84.7816 41.6364C84.7816 42.392 84.9066 43.0298 85.1566 43.5497C85.4094 44.0696 85.7489 44.4631 86.1751 44.7301C86.604 44.9972 87.0827 45.1307 87.6112 45.1307C88.1396 45.1307 88.6168 44.9972 89.043 44.7301C89.4719 44.4631 89.8114 44.0696 90.0614 43.5497C90.3143 43.0298 90.4407 42.392 90.4407 41.6364ZM93.2404 46V37.2727H96.1893C96.8711 37.2727 97.4308 37.3892 97.8683 37.6222C98.3058 37.8523 98.6296 38.169 98.8398 38.5724C99.0501 38.9759 99.1552 39.4347 99.1552 39.9489C99.1552 40.4631 99.0501 40.919 98.8398 41.3168C98.6296 41.7145 98.3072 42.027 97.8725 42.2543C97.4379 42.4787 96.8825 42.5909 96.2063 42.5909H93.82V41.6364H96.1722C96.6381 41.6364 97.0131 41.5682 97.2972 41.4318C97.5842 41.2955 97.7915 41.1023 97.9194 40.8523C98.0501 40.5994 98.1154 40.2983 98.1154 39.9489C98.1154 39.5994 98.0501 39.294 97.9194 39.0327C97.7887 38.7713 97.5799 38.5696 97.293 38.4276C97.006 38.2827 96.6268 38.2102 96.1552 38.2102H94.2972V46H93.2404ZM97.3484 42.0795L99.4961 46H98.2688L96.1552 42.0795H97.3484ZM100.916 46V37.2727H101.973V41.6023H102.075L105.996 37.2727H107.376L103.712 41.2102L107.376 46H106.098L103.064 41.9432L101.973 43.1705V46H100.916Z" fill="black"/>
</svg>
